<mxfile host="app.diagrams.net" modified="2021-11-22T12:28:50.884Z" agent="5.0 (Macintosh; Intel Mac OS X 10_15_7) AppleWebKit/605.1.15 (KHTML, like Gecko) Version/15.1 Safari/605.1.15" etag="4ZEr1si-fKR51MY6_zex" version="15.8.3" type="github" pages="3">
  <diagram name="Page-1" id="58cdce13-f638-feb5-8d6f-7d28b1aa9fa0">
    <mxGraphModel dx="830" dy="694" grid="1" gridSize="10" guides="1" tooltips="1" connect="1" arrows="1" fold="1" page="1" pageScale="1" pageWidth="1169" pageHeight="827" background="none" math="0" shadow="0">
      <root>
        <mxCell id="0" />
        <mxCell id="1" parent="0" />
        <mxCell id="UpGHSna7CEGO6BlTDvq2-2" value="Client" style="shape=umlFrame;whiteSpace=wrap;html=1;" parent="1" vertex="1">
          <mxGeometry x="40" y="40" width="840" height="200" as="geometry" />
        </mxCell>
        <mxCell id="UpGHSna7CEGO6BlTDvq2-3" value="" style="ellipse;html=1;shape=startState;fillColor=#000000;strokeColor=#ff0000;" parent="1" vertex="1">
          <mxGeometry x="120" y="125" width="30" height="30" as="geometry" />
        </mxCell>
        <mxCell id="UpGHSna7CEGO6BlTDvq2-4" value="" style="edgeStyle=orthogonalEdgeStyle;html=1;verticalAlign=bottom;endArrow=open;endSize=8;strokeColor=#000000;rounded=0;entryX=0;entryY=0.5;entryDx=0;entryDy=0;" parent="1" source="UpGHSna7CEGO6BlTDvq2-3" target="UpGHSna7CEGO6BlTDvq2-5" edge="1">
          <mxGeometry relative="1" as="geometry">
            <mxPoint x="135" y="220" as="targetPoint" />
          </mxGeometry>
        </mxCell>
        <mxCell id="UpGHSna7CEGO6BlTDvq2-9" value="client.start()" style="edgeLabel;html=1;align=center;verticalAlign=middle;resizable=0;points=[];" parent="UpGHSna7CEGO6BlTDvq2-4" vertex="1" connectable="0">
          <mxGeometry x="-0.2693" relative="1" as="geometry">
            <mxPoint x="2" y="15" as="offset" />
          </mxGeometry>
        </mxCell>
        <mxCell id="UpGHSna7CEGO6BlTDvq2-5" value="Idle" style="rounded=1;whiteSpace=wrap;html=1;arcSize=40;fontColor=#000000;fillColor=#ffffc0;strokeColor=#ff0000;" parent="1" vertex="1">
          <mxGeometry x="280" y="120" width="120" height="40" as="geometry" />
        </mxCell>
        <mxCell id="UpGHSna7CEGO6BlTDvq2-6" value="" style="edgeStyle=orthogonalEdgeStyle;html=1;verticalAlign=bottom;endArrow=open;endSize=8;strokeColor=#000000;rounded=0;" parent="1" source="UpGHSna7CEGO6BlTDvq2-5" target="UpGHSna7CEGO6BlTDvq2-7" edge="1">
          <mxGeometry relative="1" as="geometry">
            <mxPoint x="340" y="220" as="targetPoint" />
          </mxGeometry>
        </mxCell>
        <mxCell id="UpGHSna7CEGO6BlTDvq2-10" value="server.connect()" style="edgeLabel;html=1;align=center;verticalAlign=middle;resizable=0;points=[];" parent="UpGHSna7CEGO6BlTDvq2-6" vertex="1" connectable="0">
          <mxGeometry x="-0.0552" y="-2" relative="1" as="geometry">
            <mxPoint x="-1" y="14" as="offset" />
          </mxGeometry>
        </mxCell>
        <mxCell id="UpGHSna7CEGO6BlTDvq2-7" value="Server connected" style="rounded=1;whiteSpace=wrap;html=1;arcSize=40;fontColor=#000000;fillColor=#ffffc0;strokeColor=#ff0000;" parent="1" vertex="1">
          <mxGeometry x="530" y="120" width="120" height="40" as="geometry" />
        </mxCell>
        <mxCell id="UpGHSna7CEGO6BlTDvq2-8" value="" style="edgeStyle=orthogonalEdgeStyle;html=1;verticalAlign=bottom;endArrow=open;endSize=8;strokeColor=#000000;rounded=1;entryX=0.5;entryY=0;entryDx=0;entryDy=0;" parent="1" source="UpGHSna7CEGO6BlTDvq2-7" target="UpGHSna7CEGO6BlTDvq2-5" edge="1">
          <mxGeometry relative="1" as="geometry">
            <mxPoint x="590" y="220" as="targetPoint" />
            <Array as="points">
              <mxPoint x="580" y="70" />
              <mxPoint x="340" y="70" />
            </Array>
          </mxGeometry>
        </mxCell>
        <mxCell id="UpGHSna7CEGO6BlTDvq2-11" value="server.disconnect()" style="edgeLabel;html=1;align=center;verticalAlign=middle;resizable=0;points=[];" parent="UpGHSna7CEGO6BlTDvq2-8" vertex="1" connectable="0">
          <mxGeometry x="0.0886" y="-2" relative="1" as="geometry">
            <mxPoint y="-8" as="offset" />
          </mxGeometry>
        </mxCell>
        <mxCell id="UpGHSna7CEGO6BlTDvq2-14" value="" style="ellipse;html=1;shape=endState;fillColor=#000000;strokeColor=#ff0000;" parent="1" vertex="1">
          <mxGeometry x="810" y="125" width="30" height="30" as="geometry" />
        </mxCell>
        <mxCell id="UpGHSna7CEGO6BlTDvq2-15" value="" style="edgeStyle=orthogonalEdgeStyle;html=1;verticalAlign=bottom;endArrow=open;endSize=8;strokeColor=#000000;rounded=0;exitX=1;exitY=0.5;exitDx=0;exitDy=0;entryX=0;entryY=0.5;entryDx=0;entryDy=0;" parent="1" source="UpGHSna7CEGO6BlTDvq2-7" target="UpGHSna7CEGO6BlTDvq2-14" edge="1">
          <mxGeometry relative="1" as="geometry">
            <mxPoint x="790" y="139.41" as="targetPoint" />
            <mxPoint x="660" y="139.41" as="sourcePoint" />
          </mxGeometry>
        </mxCell>
        <mxCell id="UpGHSna7CEGO6BlTDvq2-16" value="server.connect()" style="edgeLabel;html=1;align=center;verticalAlign=middle;resizable=0;points=[];" parent="UpGHSna7CEGO6BlTDvq2-15" vertex="1" connectable="0">
          <mxGeometry x="-0.0552" y="-2" relative="1" as="geometry">
            <mxPoint x="-1" y="14" as="offset" />
          </mxGeometry>
        </mxCell>
      </root>
    </mxGraphModel>
  </diagram>
  <diagram id="vrGLWzVzfHFpZHYVvqmW" name="Page-2">
    <mxGraphModel dx="1034" dy="692" grid="1" gridSize="10" guides="1" tooltips="1" connect="1" arrows="1" fold="1" page="1" pageScale="1" pageWidth="1169" pageHeight="827" math="0" shadow="0">
      <root>
        <mxCell id="ALGwzKIRMaJYXLZup9FZ-0" />
        <mxCell id="ALGwzKIRMaJYXLZup9FZ-1" parent="ALGwzKIRMaJYXLZup9FZ-0" />
        <mxCell id="ALGwzKIRMaJYXLZup9FZ-2" value="Server" style="shape=umlFrame;whiteSpace=wrap;html=1;" parent="ALGwzKIRMaJYXLZup9FZ-1" vertex="1">
          <mxGeometry x="80" y="80" width="1020" height="200" as="geometry" />
        </mxCell>
        <mxCell id="ALGwzKIRMaJYXLZup9FZ-3" value="" style="ellipse;html=1;shape=startState;fillColor=#000000;strokeColor=#ff0000;" parent="ALGwzKIRMaJYXLZup9FZ-1" vertex="1">
          <mxGeometry x="110" y="165" width="30" height="30" as="geometry" />
        </mxCell>
        <mxCell id="ALGwzKIRMaJYXLZup9FZ-4" value="" style="edgeStyle=orthogonalEdgeStyle;html=1;verticalAlign=bottom;endArrow=open;endSize=8;strokeColor=#000000;rounded=0;entryX=0;entryY=0.5;entryDx=0;entryDy=0;exitX=1;exitY=0.5;exitDx=0;exitDy=0;" parent="ALGwzKIRMaJYXLZup9FZ-1" source="ALGwzKIRMaJYXLZup9FZ-3" edge="1">
          <mxGeometry relative="1" as="geometry">
            <mxPoint x="240" y="180" as="targetPoint" />
            <mxPoint x="170" y="180" as="sourcePoint" />
          </mxGeometry>
        </mxCell>
        <mxCell id="eaVwH5RqJENmeC3gIoII-27" value="/client.sendHighscore()" style="edgeLabel;html=1;align=center;verticalAlign=middle;resizable=0;points=[];" parent="ALGwzKIRMaJYXLZup9FZ-4" vertex="1" connectable="0">
          <mxGeometry x="-0.1025" relative="1" as="geometry">
            <mxPoint y="-19" as="offset" />
          </mxGeometry>
        </mxCell>
        <mxCell id="eaVwH5RqJENmeC3gIoII-6" value="idle" style="rounded=1;whiteSpace=wrap;html=1;arcSize=40;fontColor=#000000;fillColor=#ffffc0;strokeColor=#ff0000;" parent="ALGwzKIRMaJYXLZup9FZ-1" vertex="1">
          <mxGeometry x="240" y="160" width="120" height="40" as="geometry" />
        </mxCell>
        <mxCell id="eaVwH5RqJENmeC3gIoII-8" value="Connected with &lt;br&gt;Client" style="rounded=1;whiteSpace=wrap;html=1;arcSize=40;fontColor=#000000;fillColor=#ffffc0;strokeColor=#ff0000;" parent="ALGwzKIRMaJYXLZup9FZ-1" vertex="1">
          <mxGeometry x="440" y="161" width="120" height="40" as="geometry" />
        </mxCell>
        <mxCell id="eaVwH5RqJENmeC3gIoII-9" value="Get highscore" style="rounded=1;whiteSpace=wrap;html=1;arcSize=40;fontColor=#000000;fillColor=#ffffc0;strokeColor=#ff0000;" parent="ALGwzKIRMaJYXLZup9FZ-1" vertex="1">
          <mxGeometry x="640" y="160" width="120" height="40" as="geometry" />
        </mxCell>
        <mxCell id="eaVwH5RqJENmeC3gIoII-11" value="Save highscore" style="rounded=1;whiteSpace=wrap;html=1;arcSize=40;fontColor=#000000;fillColor=#ffffc0;strokeColor=#ff0000;" parent="ALGwzKIRMaJYXLZup9FZ-1" vertex="1">
          <mxGeometry x="840" y="160" width="120" height="40" as="geometry" />
        </mxCell>
        <mxCell id="eaVwH5RqJENmeC3gIoII-12" value="" style="ellipse;html=1;shape=endState;fillColor=#000000;strokeColor=#ff0000;" parent="ALGwzKIRMaJYXLZup9FZ-1" vertex="1">
          <mxGeometry x="1030" y="166" width="30" height="30" as="geometry" />
        </mxCell>
        <mxCell id="eaVwH5RqJENmeC3gIoII-23" value="" style="edgeStyle=orthogonalEdgeStyle;html=1;verticalAlign=bottom;endArrow=open;endSize=8;strokeColor=#000000;rounded=0;entryX=0;entryY=0.5;entryDx=0;entryDy=0;" parent="ALGwzKIRMaJYXLZup9FZ-1" target="eaVwH5RqJENmeC3gIoII-12" edge="1">
          <mxGeometry relative="1" as="geometry">
            <mxPoint x="1020" y="179.41" as="targetPoint" />
            <mxPoint x="960" y="181" as="sourcePoint" />
          </mxGeometry>
        </mxCell>
        <mxCell id="eaVwH5RqJENmeC3gIoII-24" value="" style="edgeStyle=orthogonalEdgeStyle;html=1;verticalAlign=bottom;endArrow=open;endSize=8;strokeColor=#000000;rounded=0;entryX=0;entryY=0.5;entryDx=0;entryDy=0;" parent="ALGwzKIRMaJYXLZup9FZ-1" target="eaVwH5RqJENmeC3gIoII-11" edge="1">
          <mxGeometry relative="1" as="geometry">
            <mxPoint x="820" y="179.41" as="targetPoint" />
            <mxPoint x="760" y="179.41" as="sourcePoint" />
          </mxGeometry>
        </mxCell>
        <mxCell id="eaVwH5RqJENmeC3gIoII-31" value="data.save()" style="edgeLabel;html=1;align=center;verticalAlign=middle;resizable=0;points=[];" parent="eaVwH5RqJENmeC3gIoII-24" vertex="1" connectable="0">
          <mxGeometry x="-0.1186" y="2" relative="1" as="geometry">
            <mxPoint y="-18" as="offset" />
          </mxGeometry>
        </mxCell>
        <mxCell id="eaVwH5RqJENmeC3gIoII-25" value="" style="edgeStyle=orthogonalEdgeStyle;html=1;verticalAlign=bottom;endArrow=open;endSize=8;strokeColor=#000000;rounded=0;entryX=0;entryY=0.5;entryDx=0;entryDy=0;" parent="ALGwzKIRMaJYXLZup9FZ-1" target="eaVwH5RqJENmeC3gIoII-9" edge="1">
          <mxGeometry relative="1" as="geometry">
            <mxPoint x="620" y="179.41" as="targetPoint" />
            <mxPoint x="560" y="179.41" as="sourcePoint" />
          </mxGeometry>
        </mxCell>
        <mxCell id="eaVwH5RqJENmeC3gIoII-30" value="get.highscore()" style="edgeLabel;html=1;align=center;verticalAlign=middle;resizable=0;points=[];" parent="eaVwH5RqJENmeC3gIoII-25" vertex="1" connectable="0">
          <mxGeometry x="0.1882" y="1" relative="1" as="geometry">
            <mxPoint x="-8" y="-19" as="offset" />
          </mxGeometry>
        </mxCell>
        <mxCell id="eaVwH5RqJENmeC3gIoII-26" value="" style="edgeStyle=orthogonalEdgeStyle;html=1;verticalAlign=bottom;endArrow=open;endSize=8;strokeColor=#000000;rounded=0;entryX=0;entryY=0.5;entryDx=0;entryDy=0;" parent="ALGwzKIRMaJYXLZup9FZ-1" target="eaVwH5RqJENmeC3gIoII-8" edge="1">
          <mxGeometry relative="1" as="geometry">
            <mxPoint x="420" y="180.41" as="targetPoint" />
            <mxPoint x="360" y="180.41" as="sourcePoint" />
          </mxGeometry>
        </mxCell>
        <mxCell id="eaVwH5RqJENmeC3gIoII-28" value="client.connect()" style="edgeLabel;html=1;align=center;verticalAlign=middle;resizable=0;points=[];" parent="eaVwH5RqJENmeC3gIoII-26" vertex="1" connectable="0">
          <mxGeometry x="-0.1778" relative="1" as="geometry">
            <mxPoint x="7" y="-20" as="offset" />
          </mxGeometry>
        </mxCell>
      </root>
    </mxGraphModel>
  </diagram>
  <diagram id="2OjGxddqwtiot9AXBcok" name="Page-3">
    <mxGraphModel dx="976" dy="816" grid="1" gridSize="10" guides="1" tooltips="1" connect="1" arrows="1" fold="1" page="1" pageScale="1" pageWidth="1169" pageHeight="827" math="0" shadow="0">
      <root>
        <mxCell id="OpdPkeY9VMXO83ja3TXy-0" />
        <mxCell id="OpdPkeY9VMXO83ja3TXy-1" parent="OpdPkeY9VMXO83ja3TXy-0" />
        <mxCell id="uuDHBY4rD5HFEVNIIuu0-1" value="" style="ellipse;html=1;shape=startState;fillColor=#000000;strokeColor=#ff0000;" parent="OpdPkeY9VMXO83ja3TXy-1" vertex="1">
          <mxGeometry x="20" y="245" width="30" height="30" as="geometry" />
        </mxCell>
        <mxCell id="uuDHBY4rD5HFEVNIIuu0-2" value="" style="edgeStyle=orthogonalEdgeStyle;html=1;verticalAlign=bottom;endArrow=open;endSize=8;strokeColor=#000000;rounded=0;entryX=0;entryY=0.5;entryDx=0;entryDy=0;" parent="OpdPkeY9VMXO83ja3TXy-1" source="uuDHBY4rD5HFEVNIIuu0-1" target="uuDHBY4rD5HFEVNIIuu0-3" edge="1">
          <mxGeometry relative="1" as="geometry">
            <mxPoint x="65" y="340" as="targetPoint" />
          </mxGeometry>
        </mxCell>
        <mxCell id="uuDHBY4rD5HFEVNIIuu0-5" value="/game running" style="edgeLabel;html=1;align=center;verticalAlign=middle;resizable=0;points=[];" parent="uuDHBY4rD5HFEVNIIuu0-2" vertex="1" connectable="0">
          <mxGeometry x="0.0353" y="-2" relative="1" as="geometry">
            <mxPoint x="-2" y="-17" as="offset" />
          </mxGeometry>
        </mxCell>
        <mxCell id="uuDHBY4rD5HFEVNIIuu0-12" style="edgeStyle=orthogonalEdgeStyle;rounded=1;orthogonalLoop=1;jettySize=auto;html=1;exitX=0.75;exitY=0;exitDx=0;exitDy=0;entryX=0.25;entryY=0;entryDx=0;entryDy=0;endArrow=open;endFill=0;strokeColor=#000000;" parent="OpdPkeY9VMXO83ja3TXy-1" source="uuDHBY4rD5HFEVNIIuu0-3" target="uuDHBY4rD5HFEVNIIuu0-7" edge="1">
          <mxGeometry relative="1" as="geometry" />
        </mxCell>
        <mxCell id="am8JQGblw0XkdTDNdwrh-0" value="loseLifepoints[previousLifepoints != Lifepoints]&lt;br&gt;/&amp;lt;calculateNewHighscore&amp;gt;" style="edgeLabel;html=1;align=center;verticalAlign=middle;resizable=0;points=[];" vertex="1" connectable="0" parent="uuDHBY4rD5HFEVNIIuu0-12">
          <mxGeometry y="1" relative="1" as="geometry">
            <mxPoint x="15" y="-19" as="offset" />
          </mxGeometry>
        </mxCell>
        <mxCell id="uuDHBY4rD5HFEVNIIuu0-13" style="edgeStyle=orthogonalEdgeStyle;rounded=1;orthogonalLoop=1;jettySize=auto;html=1;exitX=0.75;exitY=1;exitDx=0;exitDy=0;entryX=0.25;entryY=1;entryDx=0;entryDy=0;endArrow=open;endFill=0;strokeColor=#000000;" parent="OpdPkeY9VMXO83ja3TXy-1" source="uuDHBY4rD5HFEVNIIuu0-3" target="uuDHBY4rD5HFEVNIIuu0-7" edge="1">
          <mxGeometry relative="1" as="geometry" />
        </mxCell>
        <mxCell id="uuDHBY4rD5HFEVNIIuu0-15" value="killEnemy[]&lt;br&gt;/&amp;lt;calculateNewHIghscore&amp;gt;" style="edgeLabel;html=1;align=center;verticalAlign=middle;resizable=0;points=[];" parent="uuDHBY4rD5HFEVNIIuu0-13" vertex="1" connectable="0">
          <mxGeometry x="-0.1678" y="1" relative="1" as="geometry">
            <mxPoint x="11" y="21" as="offset" />
          </mxGeometry>
        </mxCell>
        <mxCell id="uuDHBY4rD5HFEVNIIuu0-17" style="edgeStyle=orthogonalEdgeStyle;rounded=1;orthogonalLoop=1;jettySize=auto;html=1;exitX=0.5;exitY=0;exitDx=0;exitDy=0;entryX=0.5;entryY=0;entryDx=0;entryDy=0;endArrow=open;endFill=0;strokeColor=#000000;" parent="OpdPkeY9VMXO83ja3TXy-1" source="uuDHBY4rD5HFEVNIIuu0-3" target="uuDHBY4rD5HFEVNIIuu0-9" edge="1">
          <mxGeometry relative="1" as="geometry">
            <Array as="points">
              <mxPoint x="210" y="160" />
              <mxPoint x="620" y="160" />
            </Array>
          </mxGeometry>
        </mxCell>
        <mxCell id="uuDHBY4rD5HFEVNIIuu0-19" value="gameEnd[lifepoints == 0]&lt;br&gt;/endGame" style="edgeLabel;html=1;align=center;verticalAlign=middle;resizable=0;points=[];" parent="uuDHBY4rD5HFEVNIIuu0-17" vertex="1" connectable="0">
          <mxGeometry x="-0.2997" y="-2" relative="1" as="geometry">
            <mxPoint x="60" y="-22" as="offset" />
          </mxGeometry>
        </mxCell>
        <mxCell id="uuDHBY4rD5HFEVNIIuu0-24" value="gameEnd[remainingWaves == 0]&lt;br&gt;/&amp;lt;endGame&amp;gt;" style="edgeStyle=orthogonalEdgeStyle;rounded=1;orthogonalLoop=1;jettySize=auto;html=1;exitX=0.5;exitY=1;exitDx=0;exitDy=0;entryX=0.5;entryY=1;entryDx=0;entryDy=0;endArrow=open;endFill=0;strokeColor=#000000;" parent="OpdPkeY9VMXO83ja3TXy-1" source="uuDHBY4rD5HFEVNIIuu0-3" target="uuDHBY4rD5HFEVNIIuu0-9" edge="1">
          <mxGeometry x="-0.0526" y="-30" relative="1" as="geometry">
            <Array as="points">
              <mxPoint x="210" y="360" />
              <mxPoint x="620" y="360" />
            </Array>
            <mxPoint as="offset" />
          </mxGeometry>
        </mxCell>
        <mxCell id="pbSl5Xe006d1OXQMLv6A-11" style="edgeStyle=orthogonalEdgeStyle;rounded=1;orthogonalLoop=1;jettySize=auto;html=1;exitX=0.25;exitY=0;exitDx=0;exitDy=0;entryX=0;entryY=0.5;entryDx=0;entryDy=0;endArrow=open;endFill=0;strokeColor=#000000;" parent="OpdPkeY9VMXO83ja3TXy-1" source="uuDHBY4rD5HFEVNIIuu0-3" target="pbSl5Xe006d1OXQMLv6A-7" edge="1">
          <mxGeometry relative="1" as="geometry">
            <Array as="points">
              <mxPoint x="180" y="90" />
              <mxPoint x="630" y="90" />
            </Array>
          </mxGeometry>
        </mxCell>
        <mxCell id="pbSl5Xe006d1OXQMLv6A-12" value="gameResign[gameResign == 1]&lt;br&gt;/&amp;lt;gameResign&amp;gt;" style="edgeLabel;html=1;align=center;verticalAlign=middle;resizable=0;points=[];" parent="pbSl5Xe006d1OXQMLv6A-11" vertex="1" connectable="0">
          <mxGeometry x="-0.0642" y="3" relative="1" as="geometry">
            <mxPoint x="35" y="-17" as="offset" />
          </mxGeometry>
        </mxCell>
        <mxCell id="uuDHBY4rD5HFEVNIIuu0-3" value="in-game" style="rounded=1;whiteSpace=wrap;html=1;arcSize=40;fontColor=#000000;fillColor=#ffffc0;strokeColor=#ff0000;" parent="OpdPkeY9VMXO83ja3TXy-1" vertex="1">
          <mxGeometry x="150" y="240" width="120" height="40" as="geometry" />
        </mxCell>
        <mxCell id="uuDHBY4rD5HFEVNIIuu0-7" value="Update highscore" style="rounded=1;whiteSpace=wrap;html=1;arcSize=40;fontColor=#000000;fillColor=#ffffc0;strokeColor=#ff0000;" parent="OpdPkeY9VMXO83ja3TXy-1" vertex="1">
          <mxGeometry x="360" y="240" width="120" height="40" as="geometry" />
        </mxCell>
        <mxCell id="pbSl5Xe006d1OXQMLv6A-0" style="edgeStyle=orthogonalEdgeStyle;rounded=0;orthogonalLoop=1;jettySize=auto;html=1;exitX=1;exitY=0.5;exitDx=0;exitDy=0;entryX=0;entryY=0.5;entryDx=0;entryDy=0;endArrow=open;endFill=0;strokeColor=#000000;" parent="OpdPkeY9VMXO83ja3TXy-1" source="uuDHBY4rD5HFEVNIIuu0-9" target="uuDHBY4rD5HFEVNIIuu0-10" edge="1">
          <mxGeometry relative="1" as="geometry" />
        </mxCell>
        <mxCell id="pbSl5Xe006d1OXQMLv6A-3" value="/&amp;lt;calculateFinalHighscore&amp;gt;" style="edgeLabel;html=1;align=center;verticalAlign=middle;resizable=0;points=[];" parent="pbSl5Xe006d1OXQMLv6A-0" vertex="1" connectable="0">
          <mxGeometry x="-0.1179" y="-2" relative="1" as="geometry">
            <mxPoint x="5" y="-42" as="offset" />
          </mxGeometry>
        </mxCell>
        <mxCell id="uuDHBY4rD5HFEVNIIuu0-9" value="Game ends" style="rounded=1;whiteSpace=wrap;html=1;arcSize=40;fontColor=#000000;fillColor=#ffffc0;strokeColor=#ff0000;" parent="OpdPkeY9VMXO83ja3TXy-1" vertex="1">
          <mxGeometry x="560" y="240" width="120" height="40" as="geometry" />
        </mxCell>
        <mxCell id="pbSl5Xe006d1OXQMLv6A-1" style="edgeStyle=orthogonalEdgeStyle;rounded=0;orthogonalLoop=1;jettySize=auto;html=1;exitX=1;exitY=0.5;exitDx=0;exitDy=0;entryX=0;entryY=0.5;entryDx=0;entryDy=0;endArrow=open;endFill=0;strokeColor=#000000;" parent="OpdPkeY9VMXO83ja3TXy-1" source="uuDHBY4rD5HFEVNIIuu0-10" target="uuDHBY4rD5HFEVNIIuu0-11" edge="1">
          <mxGeometry relative="1" as="geometry" />
        </mxCell>
        <mxCell id="jvbhOujFc1w0AfHWnKpn-0" value="/&amp;lt;sendFinalHighscore&amp;gt;" style="edgeLabel;html=1;align=center;verticalAlign=middle;resizable=0;points=[];" parent="pbSl5Xe006d1OXQMLv6A-1" vertex="1" connectable="0">
          <mxGeometry x="0.0071" y="1" relative="1" as="geometry">
            <mxPoint x="5" y="-39" as="offset" />
          </mxGeometry>
        </mxCell>
        <mxCell id="uuDHBY4rD5HFEVNIIuu0-10" value="Final &amp;nbsp;highscore" style="rounded=1;whiteSpace=wrap;html=1;arcSize=40;fontColor=#000000;fillColor=#ffffc0;strokeColor=#ff0000;" parent="OpdPkeY9VMXO83ja3TXy-1" vertex="1">
          <mxGeometry x="760" y="240" width="120" height="40" as="geometry" />
        </mxCell>
        <mxCell id="pbSl5Xe006d1OXQMLv6A-5" style="edgeStyle=orthogonalEdgeStyle;rounded=0;orthogonalLoop=1;jettySize=auto;html=1;exitX=1;exitY=0.5;exitDx=0;exitDy=0;entryX=0;entryY=0.5;entryDx=0;entryDy=0;endArrow=open;endFill=0;strokeColor=#000000;" parent="OpdPkeY9VMXO83ja3TXy-1" source="uuDHBY4rD5HFEVNIIuu0-11" target="pbSl5Xe006d1OXQMLv6A-4" edge="1">
          <mxGeometry relative="1" as="geometry" />
        </mxCell>
        <mxCell id="am8JQGblw0XkdTDNdwrh-1" value="/&amp;lt;&amp;gt;" style="edgeLabel;html=1;align=center;verticalAlign=middle;resizable=0;points=[];" vertex="1" connectable="0" parent="pbSl5Xe006d1OXQMLv6A-5">
          <mxGeometry x="-0.0635" relative="1" as="geometry">
            <mxPoint x="-4" y="-40" as="offset" />
          </mxGeometry>
        </mxCell>
        <mxCell id="uuDHBY4rD5HFEVNIIuu0-11" value="Server" style="rounded=1;whiteSpace=wrap;html=1;arcSize=40;fontColor=#000000;fillColor=#ffffc0;strokeColor=#ff0000;" parent="OpdPkeY9VMXO83ja3TXy-1" vertex="1">
          <mxGeometry x="930" y="240" width="120" height="40" as="geometry" />
        </mxCell>
        <mxCell id="pbSl5Xe006d1OXQMLv6A-4" value="" style="ellipse;html=1;shape=endState;fillColor=#000000;strokeColor=#ff0000;" parent="OpdPkeY9VMXO83ja3TXy-1" vertex="1">
          <mxGeometry x="1100" y="245" width="30" height="30" as="geometry" />
        </mxCell>
        <mxCell id="2hEevaReA8Gd2eppqT4W-6" style="edgeStyle=orthogonalEdgeStyle;rounded=1;orthogonalLoop=1;jettySize=auto;html=1;exitX=1;exitY=0.5;exitDx=0;exitDy=0;entryX=0.5;entryY=0;entryDx=0;entryDy=0;endArrow=open;endFill=0;strokeColor=#000000;" parent="OpdPkeY9VMXO83ja3TXy-1" source="pbSl5Xe006d1OXQMLv6A-7" target="pbSl5Xe006d1OXQMLv6A-4" edge="1">
          <mxGeometry relative="1" as="geometry" />
        </mxCell>
        <mxCell id="pbSl5Xe006d1OXQMLv6A-7" value="Game resigning" style="rounded=1;whiteSpace=wrap;html=1;arcSize=40;fontColor=#000000;fillColor=#ffffc0;strokeColor=#ff0000;" parent="OpdPkeY9VMXO83ja3TXy-1" vertex="1">
          <mxGeometry x="640" y="70" width="120" height="40" as="geometry" />
        </mxCell>
      </root>
    </mxGraphModel>
  </diagram>
</mxfile>
